<?xml version="1.0" encoding="UTF-8"?>
<svg id="Layer_1" data-name="Layer 1" xmlns="http://www.w3.org/2000/svg" viewBox="0 0 111.12 21">
  <defs>
    <style>
      .cls-1, .cls-2 {
        fill: none;
      }

      .cls-3 {
        fill: #2e7d32;
      }

      .cls-2 {
        stroke: #2e7d32;
        stroke-linecap: round;
        stroke-linejoin: round;
        stroke-width: 2px;
      }
    </style>
  </defs>
  <path class="cls-3" d="M26.06,16V7.27h1.06v7.79h4.06v.94h-5.11ZM32.67,16v-6.55h1.01v6.55h-1.01ZM33.18,8.36c-.2,0-.37-.07-.51-.2-.14-.13-.21-.29-.21-.48s.07-.35.21-.48c.14-.13.31-.2.51-.2s.36.07.5.2c.14.13.21.29.21.48s-.07.35-.21.48c-.14.13-.31.2-.5.2ZM36.46,13.61l-.02-1.24h.2l2.86-2.91h1.24l-3.05,3.09h-.09l-1.16,1.07ZM35.52,16V7.27h1.01v8.73h-1.01ZM39.68,16l-2.56-3.24.72-.7,3.12,3.94h-1.28ZM44.52,16.14c-.63,0-1.17-.14-1.63-.42-.45-.28-.81-.67-1.05-1.18-.24-.51-.37-1.09-.37-1.76s.12-1.26.37-1.77c.25-.51.59-.91,1.03-1.2.44-.29.96-.43,1.55-.43.34,0,.68.06,1.01.17.33.11.64.3.91.55.27.25.49.59.65,1.01.16.42.24.93.24,1.54v.43h-5.05v-.87h4.02c0-.37-.07-.7-.22-.99-.14-.29-.35-.52-.62-.69-.27-.17-.58-.25-.95-.25-.4,0-.75.1-1.04.3-.29.2-.51.45-.67.77-.16.32-.23.65-.23,1.01v.58c0,.49.09.91.26,1.26.17.34.41.6.72.78.31.18.66.26,1.07.26.26,0,.5-.04.72-.11.22-.08.4-.19.56-.34.16-.15.28-.34.36-.57l.97.27c-.1.33-.27.62-.52.87-.24.25-.54.44-.89.58-.36.14-.75.2-1.2.2ZM49.77,7.27v8.73h-1.01V7.27h1.01ZM52.26,18.45c-.17,0-.32-.01-.46-.04-.13-.03-.23-.05-.28-.08l.26-.89c.24.06.46.09.65.07.19-.02.35-.1.5-.25.15-.15.28-.39.4-.72l.19-.51-2.42-6.58h1.09l1.81,5.22h.07l1.81-5.22h1.09l-2.78,7.5c-.12.34-.28.62-.46.84-.18.22-.4.39-.64.5-.24.11-.51.16-.82.16ZM62.16,16h-1.11l3.2-8.73h1.09l3.2,8.73h-1.11l-2.61-7.35h-.07l-2.61,7.35ZM62.57,12.59h4.47v.94h-4.47v-.94ZM72.43,16.14c-.61,0-1.14-.14-1.59-.43-.44-.29-.78-.69-1.02-1.2-.24-.51-.36-1.09-.36-1.74s.12-1.25.37-1.76c.25-.51.59-.91,1.03-1.2.44-.29.96-.43,1.55-.43.46,0,.88.09,1.24.26s.67.41.91.72c.24.31.38.66.44,1.07h-1.01c-.08-.3-.25-.56-.51-.79-.26-.23-.61-.35-1.06-.35-.39,0-.74.1-1.03.31-.29.2-.52.49-.69.86-.16.37-.24.8-.24,1.29s.08.95.24,1.32c.16.38.39.67.68.87.3.21.64.31,1.04.31.26,0,.5-.05.71-.14.21-.09.39-.22.54-.39.15-.17.25-.38.32-.61h1.01c-.06.39-.2.73-.42,1.04-.22.31-.52.55-.88.73-.36.18-.79.27-1.27.27ZM79.13,16.14c-.61,0-1.14-.14-1.59-.43-.44-.29-.78-.69-1.02-1.2-.24-.51-.36-1.09-.36-1.74s.12-1.25.37-1.76c.25-.51.59-.91,1.03-1.2.44-.29.96-.43,1.55-.43.46,0,.88.09,1.24.26.37.17.67.41.91.72.24.31.38.66.44,1.07h-1.01c-.08-.3-.25-.56-.51-.79-.26-.23-.61-.35-1.06-.35-.39,0-.74.1-1.03.31-.29.2-.52.49-.69.86-.16.37-.24.8-.24,1.29s.08.95.24,1.32c.16.38.39.67.68.87.3.21.64.31,1.04.31.26,0,.5-.05.71-.14.21-.09.39-.22.54-.39.15-.17.25-.38.32-.61h1.01c-.06.39-.2.73-.42,1.04-.22.31-.52.55-.88.73-.36.18-.79.27-1.27.27ZM87.3,13.32v-3.87h1.01v6.55h-1.01v-1.11h-.07c-.15.33-.39.62-.72.85-.32.23-.73.35-1.23.35-.41,0-.77-.09-1.09-.27-.32-.18-.57-.45-.75-.82-.18-.37-.27-.83-.27-1.39v-4.16h1.01v4.09c0,.48.13.86.4,1.14.27.28.61.43,1.03.43.25,0,.5-.06.76-.19.26-.13.48-.32.66-.59.18-.26.27-.6.27-1.01ZM90.15,16v-6.55h.97v.99h.07c.12-.32.34-.59.65-.79.31-.2.66-.3,1.06-.3.07,0,.17,0,.28,0,.11,0,.19,0,.25.01v1.02s-.11-.02-.23-.04c-.12-.02-.25-.03-.38-.03-.32,0-.6.07-.85.2-.25.13-.44.31-.59.55-.14.23-.21.49-.21.79v4.14h-1.01ZM96.54,16.15c-.41,0-.79-.08-1.13-.23-.34-.16-.61-.39-.81-.69-.2-.3-.3-.66-.3-1.09,0-.38.07-.68.22-.91.15-.24.35-.42.59-.55.25-.13.52-.23.82-.3.3-.07.6-.12.91-.16.4-.05.72-.09.97-.12.25-.03.43-.08.55-.14.12-.07.17-.18.17-.34v-.03c0-.42-.11-.75-.35-.98-.23-.23-.57-.35-1.04-.35s-.86.11-1.13.32c-.27.21-.46.43-.58.67l-.95-.34c.17-.4.4-.71.68-.93.29-.22.6-.38.94-.47.34-.09.68-.14,1.01-.14.21,0,.45.03.72.08.28.05.54.15.8.3.26.15.47.38.64.69.17.31.26.72.26,1.24v4.31h-1.01v-.89h-.05c-.07.14-.18.29-.34.46-.16.16-.37.3-.64.41-.26.11-.59.17-.97.17ZM96.7,15.25c.4,0,.73-.08,1.01-.23.28-.16.48-.36.62-.61.14-.25.21-.51.21-.78v-.92c-.04.05-.14.1-.28.14-.14.04-.31.08-.49.11-.18.03-.37.05-.54.08-.17.02-.31.04-.42.05-.26.03-.51.09-.73.17-.22.07-.41.19-.55.34-.14.15-.2.35-.2.61,0,.35.13.61.39.79.26.18.59.26.99.26ZM104.22,9.45v.85h-3.39v-.85h3.39ZM101.82,7.89h1v6.24c0,.28.04.5.12.64.09.14.19.23.32.28.13.05.27.07.42.07.11,0,.2,0,.27-.02.07-.01.13-.03.17-.03l.2.9c-.07.03-.16.05-.29.08-.12.03-.28.04-.46.04-.28,0-.56-.06-.83-.18-.27-.12-.49-.31-.67-.56-.18-.25-.26-.57-.26-.95v-6.51ZM108.41,16.14c-.63,0-1.18-.14-1.63-.42-.46-.28-.81-.67-1.05-1.18-.24-.51-.37-1.09-.37-1.76s.12-1.26.37-1.77c.25-.51.59-.91,1.03-1.2.44-.29.96-.43,1.55-.43.34,0,.68.06,1.01.17.33.11.63.3.91.55.27.25.49.59.65,1.01.16.42.24.93.24,1.54v.43h-5.05v-.87h4.02c0-.37-.07-.7-.22-.99-.14-.29-.35-.52-.62-.69-.27-.17-.58-.25-.95-.25-.4,0-.75.1-1.04.3-.29.2-.51.45-.67.77-.16.32-.24.65-.24,1.01v.58c0,.49.09.91.26,1.26.17.34.41.6.72.78.31.18.66.26,1.07.26.26,0,.5-.04.72-.11.22-.08.4-.19.56-.34.16-.15.28-.34.36-.57l.97.27c-.1.33-.27.62-.52.87-.24.25-.54.44-.89.58-.36.14-.75.2-1.2.2Z"/>
  <rect class="cls-1" width="25" height="21"/>
  <path class="cls-2" d="M8.33,9.62l2.08,1.75,4.17-3.5M21.88,18.38l-4.48-3.76M19.79,9.62c0,3.87-3.73,7-8.33,7S3.12,13.49,3.12,9.62,6.86,2.62,11.46,2.62s8.33,3.13,8.33,7Z"/>
</svg>