<svg width="154" height="25" xmlns="http://www.w3.org/2000/svg" fill="none">

 <g>
  <title>Layer 1</title>
  <path id="svg_1" fill="#DB0000" d="m0.62396,7.21805c0,0 -1.05281,1.23308 0.32673,2.82705c0,0 0.21782,-0.81202 2.39603,-0.81202l2.61386,0c2.46864,0 4.32012,-1.95488 3.15841,-3.96992c0,0 1.74261,0.15037 2.32341,-0.75188c0.5809,-0.90226 -0.0363,-1.26316 -0.9076,-1.26316l-4.3927,0c0,0.64662 -1.48845,0.73684 -1.48845,0l-2.46864,0c0,0 -1.85148,0 -1.88779,1.29323c0,0 0.41749,-0.21052 0.83499,-0.2406l0,0.34587c0,0 -0.50825,0.07518 -0.74423,0.18045c-0.23597,0.10526 -0.58085,0.39098 -0.25412,1.12782c0.32673,0.73684 0.45379,0.99248 0.45379,0.99248c0,0 0.5264,-0.37594 1.37954,-0.37594l0.99835,0c1.77887,0 1.45214,1.42857 -0.32674,1.42857c-1.77887,0 -2.01484,-0.78195 -2.01484,-0.78195z"/>
  <path id="svg_2" fill="#DB0000" d="m9.89952,5.72932c0,0 0.59898,0.03008 1.03468,-0.28571c0,0 3.9389,2.54135 -1.90597,7.65409c-5.84487,5.1128 -1.32508,8.4211 -1.32508,8.4211c0,0 -1.0528,0.8421 -0.45379,2.4812c0,0 -2.43089,-1.138 -4.28963,-3.0677c-2.68792,-2.7903 -4.32956,-7.061 3.0495,-10.4661c0,0 4.87047,-2.03011 3.89029,-4.73688z"/>
  <path id="svg_3" fill="#DB0000" d="m3.87966,2.76692c0,0 0.78634,-1.16271 2.61386,-1.16271c1.4398,0 1.76653,-0.61173 1.76653,-0.61173c0,0 0.6295,-0.99248 3.79955,-0.99248c2.9057,0 4.8647,0.80181 6.4504,1.87489c0,0 -4.2715,-2.19549 -8.4827,0.89203l-6.14764,0z"/>
  <path id="svg_4" fill="#DB0000" d="m21.6437,10.1251c-0.1212,-3.62886 -3.5091,-7.51878 -10.7945,-7.29803c7.1155,-4.99248 19.4587,6.15519 9.2937,12.01023c0,0 1.6997,-2.0084 1.5008,-4.7116l0,-0.0006z"/>
  <path id="svg_5" fill="#DB0000" d="m11.9391,3.22827c8.882,-0.22075 12.0527,8.60153 6.3168,12.57143l-5.7599,2.3056c0,0 -0.7501,-2.0048 2.033,-4.3507c2.783,-2.3459 5.4694,-6.73685 -2.2269,-9.62407c0,0 0.1452,-0.60151 -0.363,-0.90226z"/>
  <path id="svg_6" fill="#DB0000" d="m11.4787,5.21323c0,0 0.4357,-0.34105 0.5809,-0.62135c6.6072,2.28571 5.5668,6.15522 1.6213,9.40332c-2.42,2.0649 -1.67,4.2905 -1.67,4.2905c0,0 -2.95291,1.5236 -3.96941,2.8469c0,0 -4.27293,-3.0147 1.64601,-8.0198c5.8086,-4.9125 1.7912,-7.89957 1.7912,-7.89957z"/>
  <path id="svg_7" fill="#DB0000" d="m31.0568,16l0,-8.72727l2.9489,0c0.6846,0 1.2443,0.12358 1.679,0.37074c0.4375,0.24431 0.7613,0.57528 0.9715,0.99289c0.2103,0.41762 0.3154,0.88353 0.3154,1.39774c0,0.5142 -0.1051,0.9815 -0.3154,1.402c-0.2073,0.4204 -0.5284,0.7557 -0.963,1.0057c-0.4347,0.2471 -0.9915,0.3707 -1.6705,0.3707l-2.1136,0l0,-0.9375l2.0795,0c0.4688,0 0.8452,-0.081 1.1293,-0.2429c0.2841,-0.1619 0.4901,-0.3807 0.6179,-0.6562c0.1307,-0.2785 0.196,-0.5924 0.196,-0.9418c0,-0.34944 -0.0653,-0.66194 -0.196,-0.93751c-0.1278,-0.27557 -0.3352,-0.49148 -0.6222,-0.64773c-0.2869,-0.15909 -0.6676,-0.23863 -1.142,-0.23863l-1.858,0l0,7.78977l-1.0568,0zm10.0696,0.1364c-0.5909,0 -1.1094,-0.1407 -1.5554,-0.4219c-0.4432,-0.2813 -0.7898,-0.6747 -1.0398,-1.1804c-0.2471,-0.5057 -0.3707,-1.0966 -0.3707,-1.7727c0,-0.6819 0.1236,-1.277 0.3707,-1.7855c0.25,-0.5086 0.5966,-0.9035 1.0398,-1.18471c0.446,-0.28125 0.9645,-0.42187 1.5554,-0.42187c0.5909,0 1.108,0.14062 1.5512,0.42187c0.446,0.28121 0.7926,0.67611 1.0397,1.18471c0.25,0.5085 0.375,1.1036 0.375,1.7855c0,0.6761 -0.125,1.267 -0.375,1.7727c-0.2471,0.5057 -0.5937,0.8991 -1.0397,1.1804c-0.4432,0.2812 -0.9603,0.4219 -1.5512,0.4219zm0,-0.9034c0.4489,0 0.8182,-0.1151 1.108,-0.3452c0.2897,-0.2301 0.5042,-0.5327 0.6434,-0.9077c0.1392,-0.375 0.2088,-0.7812 0.2088,-1.2187c0,-0.4375 -0.0696,-0.8452 -0.2088,-1.223c-0.1392,-0.3779 -0.3537,-0.6833 -0.6434,-0.9162c-0.2898,-0.233 -0.6591,-0.3495 -1.108,-0.3495c-0.4488,0 -0.8182,0.1165 -1.1079,0.3495c-0.2898,0.2329 -0.5043,0.5383 -0.6435,0.9162c-0.1392,0.3778 -0.2088,0.7855 -0.2088,1.223c0,0.4375 0.0696,0.8437 0.2088,1.2187c0.1392,0.375 0.3537,0.6776 0.6435,0.9077c0.2897,0.2301 0.6591,0.3452 1.1079,0.3452zm7.3477,-5.77845l0,0.85225l-3.3921,0l0,-0.85225l3.3921,0zm-2.4034,-1.56819l1.0056,0l0,6.23864c0,0.2841 0.0412,0.4972 0.1236,0.6392c0.0853,0.1392 0.1932,0.233 0.3239,0.2813c0.1335,0.0454 0.2741,0.0681 0.4219,0.0681c0.1108,0 0.2017,-0.0056 0.2727,-0.017c0.071,-0.0142 0.1278,-0.0256 0.1704,-0.0341l0.2046,0.9034c-0.0682,0.0256 -0.1634,0.0511 -0.2855,0.0767c-0.1222,0.0284 -0.277,0.0426 -0.4645,0.0426c-0.2841,0 -0.5625,-0.0611 -0.8352,-0.1832c-0.2699,-0.1222 -0.4944,-0.3082 -0.6733,-0.5582c-0.1762,-0.25 -0.2642,-0.5654 -0.2642,-0.9461l0,-6.51134zm6.5902,8.25004c-0.6307,0 -1.1747,-0.1392 -1.6321,-0.4176c-0.4546,-0.2813 -0.8054,-0.6733 -1.0526,-1.1762c-0.2443,-0.5057 -0.3665,-1.0937 -0.3665,-1.7642c0,-0.6704 0.1222,-1.2614 0.3665,-1.7727c0.2472,-0.5142 0.5909,-0.9148 1.0313,-1.20172c0.4431,-0.28978 0.9602,-0.43466 1.5511,-0.43466c0.3409,0 0.6776,0.05682 1.0099,0.17045c0.3324,0.11364 0.635,0.2983 0.9077,0.55403c0.2727,0.2528 0.4901,0.588 0.652,1.0056c0.1619,0.4176 0.2429,0.9318 0.2429,1.5426l0,0.4262l-5.0455,0l0,-0.8693l4.0228,0c0,-0.3694 -0.0739,-0.6989 -0.2216,-0.9887c-0.1449,-0.2897 -0.3523,-0.5184 -0.6222,-0.6861c-0.267,-0.1676 -0.5824,-0.2514 -0.946,-0.2514c-0.4006,0 -0.7472,0.0995 -1.0398,0.2983c-0.2898,0.196 -0.5128,0.4517 -0.669,0.7671c-0.1563,0.3153 -0.2344,0.6534 -0.2344,1.0142l0,0.5795c0,0.4943 0.0852,0.9134 0.2557,1.2571c0.1733,0.3409 0.4133,0.6009 0.7202,0.7799c0.3068,0.1761 0.6633,0.2642 1.0696,0.2642c0.2642,0 0.5028,-0.037 0.7159,-0.1108c0.2159,-0.0767 0.402,-0.1904 0.5582,-0.341c0.1563,-0.1534 0.277,-0.3437 0.3622,-0.571l0.9716,0.2728c-0.1023,0.3295 -0.2741,0.6193 -0.5156,0.8693c-0.2415,0.2471 -0.5398,0.4403 -0.8949,0.5795c-0.3551,0.1364 -0.7543,0.2046 -1.1974,0.2046zm5.2457,-4.0739l0,3.9375l-1.0057,0l0,-6.54545l0.9716,0l0,1.02275l0.0852,0c0.1535,-0.3324 0.3864,-0.59946 0.6989,-0.80116c0.3125,-0.20455 0.7159,-0.30682 1.2102,-0.30682c0.4432,0 0.831,0.09091 1.1634,0.27273c0.3324,0.17897 0.5909,0.45175 0.7756,0.81815c0.1846,0.3637 0.2769,0.8239 0.2769,1.3807l0,4.1591l-1.0056,0l0,-4.0909c0,-0.5142 -0.1336,-0.9148 -0.4006,-1.2017c-0.2671,-0.2898 -0.6335,-0.4347 -1.0994,-0.4347c-0.3211,0 -0.608,0.0696 -0.8608,0.2088c-0.25,0.1392 -0.4475,0.3424 -0.5924,0.6094c-0.1449,0.2671 -0.2173,0.5909 -0.2173,0.9716zm8.8604,-2.60795l0,0.85225l-3.392,0l0,-0.85225l3.392,0zm-2.4034,-1.56819l1.0057,0l0,6.23864c0,0.2841 0.0412,0.4972 0.1236,0.6392c0.0852,0.1392 0.1932,0.233 0.3239,0.2813c0.1335,0.0454 0.2741,0.0681 0.4218,0.0681c0.1108,0 0.2017,-0.0056 0.2728,-0.017c0.071,-0.0142 0.1278,-0.0256 0.1704,-0.0341l0.2046,0.9034c-0.0682,0.0256 -0.1634,0.0511 -0.2855,0.0767c-0.1222,0.0284 -0.277,0.0426 -0.4645,0.0426c-0.2841,0 -0.5625,-0.0611 -0.8353,-0.1832c-0.2698,-0.1222 -0.4943,-0.3082 -0.6733,-0.5582c-0.1761,-0.25 -0.2642,-0.5654 -0.2642,-0.9461l0,-6.51134zm3.9162,8.11364l0,-6.54545l1.0057,0l0,6.54545l-1.0057,0zm0.5114,-7.63636c-0.196,0 -0.3651,-0.06676 -0.5071,-0.20029c-0.1392,-0.13352 -0.2088,-0.29403 -0.2088,-0.48153c0,-0.1875 0.0696,-0.34801 0.2088,-0.48154c0.142,-0.13352 0.3111,-0.20028 0.5071,-0.20028c0.196,0 0.3636,0.06676 0.5028,0.20028c0.1421,0.13353 0.2131,0.29404 0.2131,0.48154c0,0.1875 -0.071,0.34801 -0.2131,0.48153c-0.1392,0.13353 -0.3068,0.20029 -0.5028,0.20029zm4.2624,7.78976c-0.4148,0 -0.7912,-0.0781 -1.1292,-0.2344c-0.3381,-0.1591 -0.6066,-0.3878 -0.8054,-0.686c-0.1989,-0.3012 -0.2983,-0.6648 -0.2983,-1.091c0,-0.375 0.0738,-0.6789 0.2216,-0.9119c0.1477,-0.2358 0.3451,-0.4204 0.5923,-0.554c0.2471,-0.1335 0.5199,-0.2329 0.8182,-0.2983c0.3011,-0.0681 0.6037,-0.1221 0.9076,-0.1619c0.3978,-0.0511 0.7202,-0.0895 0.9674,-0.115c0.25,-0.0285 0.4318,-0.0753 0.5454,-0.1407c0.1165,-0.0653 0.1747,-0.179 0.1747,-0.3409l0,-0.0341c0,-0.4204 -0.115,-0.7471 -0.3451,-0.9801c-0.2273,-0.2329 -0.5725,-0.3494 -1.0355,-0.3494c-0.4802,0 -0.8566,0.1051 -1.1293,0.3153c-0.2727,0.2102 -0.4645,0.4347 -0.5753,0.6733l-0.9545,-0.3409c0.1704,-0.3977 0.3977,-0.7074 0.6818,-0.92897c0.2869,-0.22443 0.5994,-0.38068 0.9375,-0.46875c0.3409,-0.09091 0.6761,-0.13636 1.0057,-0.13636c0.2102,0 0.4517,0.02557 0.7244,0.0767c0.2756,0.0483 0.5412,0.14915 0.7969,0.30256c0.2585,0.15341 0.473,0.38492 0.6434,0.69462c0.1705,0.3096 0.2557,0.7244 0.2557,1.2443l0,4.3125l-1.0057,0l0,-0.8864l-0.0511,0c-0.0682,0.1421 -0.1818,0.2941 -0.3409,0.456c-0.1591,0.1619 -0.3707,0.2997 -0.6349,0.4134c-0.2643,0.1136 -0.5867,0.1704 -0.9674,0.1704zm0.1534,-0.9034c0.3978,0 0.733,-0.0781 1.0057,-0.2344c0.2756,-0.1562 0.483,-0.3579 0.6222,-0.6051c0.142,-0.2471 0.213,-0.5071 0.213,-0.7798l0,-0.9205c-0.0426,0.0512 -0.1363,0.098 -0.2812,0.1407c-0.1421,0.0397 -0.3068,0.0752 -0.4943,0.1065c-0.1847,0.0284 -0.3651,0.054 -0.5412,0.0767c-0.1733,0.0199 -0.3139,0.0369 -0.4219,0.0511c-0.2614,0.0341 -0.5057,0.0895 -0.733,0.1662c-0.2244,0.0739 -0.4062,0.1861 -0.5454,0.3367c-0.1364,0.1477 -0.2046,0.3494 -0.2046,0.6051c0,0.3494 0.1293,0.6136 0.3878,0.7926c0.2614,0.1761 0.5924,0.2642 0.9929,0.2642zm5.6879,-7.97727l0,8.72727l-1.0057,0l0,-8.72727l1.0057,0zm2.8476,0l0,8.72727l-1.0056,0l0,-8.72727l1.0056,0zm2.4897,11.18177c-0.1704,0 -0.3224,-0.0142 -0.4559,-0.0426c-0.1335,-0.0255 -0.2259,-0.0511 -0.277,-0.0767l0.2557,-0.8863c0.2443,0.0625 0.4602,0.0852 0.6477,0.0681c0.1875,-0.017 0.3537,-0.1008 0.4986,-0.2514c0.1477,-0.1477 0.2826,-0.3878 0.4048,-0.7201l0.1875,-0.5114l-2.4204,-6.57955l1.0909,0l1.8068,5.21595l0.0682,0l1.8068,-5.21595l1.0909,0l-2.7784,7.49995c-0.125,0.3381 -0.2798,0.6179 -0.4645,0.8395c-0.1847,0.2245 -0.3992,0.3907 -0.6435,0.4986c-0.2415,0.108 -0.5142,0.1619 -0.8182,0.1619zm9.407,-2.4545l0,-6.54545l0.9716,0l0,1.02275l0.0852,0c0.1364,-0.3495 0.3566,-0.62077 0.6605,-0.81395c0.304,-0.19602 0.6691,-0.29403 1.0952,-0.29403c0.4318,0 0.7912,0.09801 1.0781,0.29403c0.2898,0.19318 0.5157,0.46445 0.6776,0.81395l0.0682,0c0.1676,-0.3381 0.419,-0.60656 0.7542,-0.80542c0.3353,-0.20171 0.7372,-0.30256 1.2062,-0.30256c0.585,0 1.064,0.18324 1.436,0.54971c0.372,0.36367 0.558,0.93037 0.558,1.70027l0,4.3807l-1.006,0l0,-4.3807c0,-0.4829 -0.132,-0.8281 -0.396,-1.0355c-0.264,-0.2074 -0.575,-0.3111 -0.9331,-0.3111c-0.4602,0 -0.8168,0.1392 -1.0696,0.4176c-0.2529,0.2756 -0.3793,0.625 -0.3793,1.0483l0,4.2614l-1.0227,0l0,-4.483c0,-0.3721 -0.1207,-0.6718 -0.3622,-0.8991c-0.2415,-0.2301 -0.5526,-0.3452 -0.9333,-0.3452c-0.2613,0 -0.5056,0.0696 -0.7329,0.2088c-0.2244,0.1392 -0.4063,0.3324 -0.5455,0.5796c-0.1363,0.2443 -0.2045,0.527 -0.2045,0.848l0,4.0909l-1.0057,0zm10.4298,0l0,-6.54545l1.006,0l0,6.54545l-1.006,0zm0.511,-7.63636c-0.196,0 -0.365,-0.06676 -0.507,-0.20029c-0.139,-0.13352 -0.209,-0.29403 -0.209,-0.48153c0,-0.1875 0.07,-0.34801 0.209,-0.48154c0.142,-0.13352 0.311,-0.20028 0.507,-0.20028c0.196,0 0.364,0.06676 0.503,0.20028c0.142,0.13353 0.213,0.29404 0.213,0.48154c0,0.1875 -0.071,0.34801 -0.213,0.48153c-0.139,0.13353 -0.307,0.20029 -0.503,0.20029zm6.973,2.55686l-0.903,0.2556c-0.057,-0.1505 -0.141,-0.2968 -0.252,-0.4389c-0.108,-0.1449 -0.256,-0.2642 -0.443,-0.3579c-0.188,-0.0938 -0.428,-0.1407 -0.72,-0.1407c-0.401,0 -0.735,0.0924 -1.002,0.277c-0.264,0.1818 -0.396,0.4134 -0.396,0.6946c0,0.25 0.091,0.4475 0.273,0.5924c0.182,0.1448 0.466,0.2656 0.852,0.3622l0.972,0.2386c0.585,0.1421 1.021,0.3594 1.308,0.652c0.287,0.2898 0.43,0.6633 0.43,1.1207c0,0.375 -0.108,0.7103 -0.324,1.0057c-0.213,0.2955 -0.511,0.5284 -0.895,0.6989c-0.383,0.1704 -0.829,0.2557 -1.338,0.2557c-0.667,0 -1.22,-0.1449 -1.657,-0.4347c-0.438,-0.2898 -0.715,-0.7131 -0.831,-1.2699l0.954,-0.2386c0.091,0.3523 0.263,0.6165 0.516,0.7926c0.256,0.1761 0.589,0.2642 1.001,0.2642c0.469,0 0.841,-0.0994 1.117,-0.2983c0.278,-0.2017 0.417,-0.4432 0.417,-0.7244c0,-0.2273 -0.079,-0.4176 -0.238,-0.5711c-0.159,-0.1562 -0.404,-0.2727 -0.733,-0.3494l-1.091,-0.2557c-0.599,-0.142 -1.04,-0.3622 -1.321,-0.6605c-0.278,-0.3011 -0.418,-0.6775 -0.418,-1.1292c0,-0.3694 0.104,-0.6961 0.311,-0.9802c0.211,-0.28404 0.496,-0.50705 0.857,-0.66898c0.364,-0.16194 0.776,-0.2429 1.236,-0.2429c0.647,0 1.156,0.14204 1.525,0.42613c0.372,0.28405 0.637,0.65905 0.793,1.12505zm2.639,-3.64777l0,8.72727l-1.006,0l0,-8.72727l1.006,0zm4.586,8.86367c-0.631,0 -1.175,-0.1392 -1.632,-0.4176c-0.455,-0.2813 -0.805,-0.6733 -1.053,-1.1762c-0.244,-0.5057 -0.366,-1.0937 -0.366,-1.7642c0,-0.6704 0.122,-1.2614 0.366,-1.7727c0.248,-0.5142 0.591,-0.9148 1.032,-1.20172c0.443,-0.28978 0.96,-0.43466 1.551,-0.43466c0.341,0 0.677,0.05682 1.01,0.17045c0.332,0.11364 0.635,0.2983 0.907,0.55403c0.273,0.2528 0.49,0.588 0.652,1.0056c0.162,0.4176 0.243,0.9318 0.243,1.5426l0,0.4262l-5.045,0l0,-0.8693l4.023,0c0,-0.3694 -0.074,-0.6989 -0.222,-0.9887c-0.145,-0.2897 -0.352,-0.5184 -0.622,-0.6861c-0.267,-0.1676 -0.583,-0.2514 -0.946,-0.2514c-0.401,0 -0.747,0.0995 -1.04,0.2983c-0.29,0.196 -0.513,0.4517 -0.669,0.7671c-0.156,0.3153 -0.234,0.6534 -0.234,1.0142l0,0.5795c0,0.4943 0.085,0.9134 0.255,1.2571c0.174,0.3409 0.414,0.6009 0.72,0.7799c0.307,0.1761 0.664,0.2642 1.07,0.2642c0.264,0 0.503,-0.037 0.716,-0.1108c0.216,-0.0767 0.402,-0.1904 0.558,-0.341c0.156,-0.1534 0.277,-0.3437 0.362,-0.571l0.972,0.2728c-0.102,0.3295 -0.274,0.6193 -0.516,0.8693c-0.241,0.2471 -0.539,0.4403 -0.895,0.5795c-0.355,0.1364 -0.754,0.2046 -1.197,0.2046zm6.166,0.017c-0.415,0 -0.791,-0.0781 -1.129,-0.2344c-0.338,-0.1591 -0.607,-0.3878 -0.805,-0.686c-0.199,-0.3012 -0.299,-0.6648 -0.299,-1.091c0,-0.375 0.074,-0.6789 0.222,-0.9119c0.148,-0.2358 0.345,-0.4204 0.592,-0.554c0.247,-0.1335 0.52,-0.2329 0.818,-0.2983c0.302,-0.0681 0.604,-0.1221 0.908,-0.1619c0.398,-0.0511 0.72,-0.0895 0.967,-0.115c0.25,-0.0285 0.432,-0.0753 0.546,-0.1407c0.116,-0.0653 0.175,-0.179 0.175,-0.3409l0,-0.0341c0,-0.4204 -0.115,-0.7471 -0.346,-0.9801c-0.227,-0.2329 -0.572,-0.3494 -1.035,-0.3494c-0.48,0 -0.857,0.1051 -1.129,0.3153c-0.273,0.2102 -0.465,0.4347 -0.576,0.6733l-0.954,-0.3409c0.17,-0.3977 0.398,-0.7074 0.682,-0.92897c0.287,-0.22443 0.599,-0.38068 0.937,-0.46875c0.341,-0.09091 0.676,-0.13636 1.006,-0.13636c0.21,0 0.451,0.02557 0.724,0.0767c0.276,0.0483 0.541,0.14915 0.797,0.30256c0.259,0.15341 0.473,0.38492 0.644,0.69462c0.17,0.3096 0.255,0.7244 0.255,1.2443l0,4.3125l-1.005,0l0,-0.8864l-0.052,0c-0.068,0.1421 -0.181,0.2941 -0.34,0.456c-0.16,0.1619 -0.371,0.2997 -0.635,0.4134c-0.265,0.1136 -0.587,0.1704 -0.968,0.1704zm0.154,-0.9034c0.397,0 0.733,-0.0781 1.005,-0.2344c0.276,-0.1562 0.483,-0.3579 0.622,-0.6051c0.143,-0.2471 0.214,-0.5071 0.214,-0.7798l0,-0.9205c-0.043,0.0512 -0.137,0.098 -0.282,0.1407c-0.142,0.0397 -0.307,0.0752 -0.494,0.1065c-0.185,0.0284 -0.365,0.054 -0.541,0.0767c-0.173,0.0199 -0.314,0.0369 -0.422,0.0511c-0.261,0.0341 -0.506,0.0895 -0.733,0.1662c-0.224,0.0739 -0.406,0.1861 -0.545,0.3367c-0.137,0.1477 -0.205,0.3494 -0.205,0.6051c0,0.3494 0.129,0.6136 0.388,0.7926c0.261,0.1761 0.592,0.2642 0.993,0.2642zm7.153,0.8864c-0.545,0 -1.027,-0.1378 -1.444,-0.4134c-0.418,-0.2784 -0.744,-0.6704 -0.98,-1.1761c-0.236,-0.5085 -0.354,-1.1094 -0.354,-1.8026c0,-0.6875 0.118,-1.2841 0.354,-1.7898c0.236,-0.5056 0.564,-0.8963 0.984,-1.17183c0.421,-0.27557 0.906,-0.41335 1.457,-0.41335c0.427,0 0.763,0.07102 1.01,0.21307c0.25,0.1392 0.441,0.29829 0.571,0.47731c0.134,0.1761 0.238,0.321 0.312,0.4346l0.085,0l0,-3.22157l1.005,0l0,8.72727l-0.971,0l0,-1.0057l-0.119,0c-0.074,0.1193 -0.179,0.2699 -0.316,0.4517c-0.136,0.179 -0.331,0.3395 -0.584,0.4816c-0.252,0.1392 -0.589,0.2088 -1.01,0.2088zm0.137,-0.9034c0.403,0 0.744,-0.1052 1.023,-0.3154c0.278,-0.2131 0.49,-0.5071 0.634,-0.8821c0.145,-0.3778 0.218,-0.8139 0.218,-1.3082c0,-0.4887 -0.071,-0.9162 -0.213,-1.2827c-0.142,-0.3693 -0.353,-0.6562 -0.631,-0.8608c-0.278,-0.2074 -0.622,-0.3111 -1.031,-0.3111c-0.426,0 -0.781,0.1094 -1.066,0.3282c-0.281,0.2159 -0.492,0.5099 -0.634,0.8821c-0.14,0.3693 -0.209,0.784 -0.209,1.2443c0,0.4659 0.071,0.8892 0.213,1.2699c0.145,0.3778 0.358,0.6789 0.639,0.9034c0.284,0.2216 0.636,0.3324 1.057,0.3324zm4.845,0.767l0,-6.54545l1.006,0l0,6.54545l-1.006,0zm0.511,-7.63636c-0.196,0 -0.365,-0.06676 -0.507,-0.20029c-0.139,-0.13352 -0.209,-0.29403 -0.209,-0.48153c0,-0.1875 0.07,-0.34801 0.209,-0.48154c0.142,-0.13352 0.311,-0.20028 0.507,-0.20028c0.196,0 0.364,0.06676 0.503,0.20028c0.142,0.13353 0.213,0.29404 0.213,0.48154c0,0.1875 -0.071,0.34801 -0.213,0.48153c-0.139,0.13353 -0.307,0.20029 -0.503,0.20029zm3.342,3.69886l0,3.9375l-1.005,0l0,-6.54545l0.971,0l0,1.02275l0.085,0c0.154,-0.3324 0.387,-0.59946 0.699,-0.80116c0.313,-0.20455 0.716,-0.30682 1.211,-0.30682c0.443,0 0.83,0.09091 1.163,0.27273c0.332,0.17897 0.591,0.45175 0.775,0.81815c0.185,0.3637 0.277,0.8239 0.277,1.3807l0,4.1591l-1.005,0l0,-4.0909c0,-0.5142 -0.134,-0.9148 -0.401,-1.2017c-0.267,-0.2898 -0.633,-0.4347 -1.099,-0.4347c-0.321,0 -0.608,0.0696 -0.861,0.2088c-0.25,0.1392 -0.447,0.3424 -0.592,0.6094c-0.145,0.2671 -0.218,0.5909 -0.218,0.9716zm8.656,6.5284c-0.486,0 -0.903,-0.0625 -1.253,-0.1875c-0.349,-0.1222 -0.64,-0.2841 -0.873,-0.4858c-0.23,-0.1988 -0.414,-0.4119 -0.55,-0.6392l0.801,-0.5625c0.091,0.1193 0.206,0.2557 0.345,0.4091c0.14,0.1562 0.33,0.2912 0.571,0.4048c0.245,0.1165 0.564,0.1747 0.959,0.1747c0.529,0 0.965,-0.1278 1.308,-0.3835c0.344,-0.2557 0.516,-0.6562 0.516,-1.2017l0,-1.3295l-0.085,0c-0.074,0.1193 -0.179,0.267 -0.316,0.4432c-0.133,0.1732 -0.326,0.3281 -0.579,0.4644c-0.25,0.1336 -0.588,0.2003 -1.014,0.2003c-0.529,0 -1.003,-0.125 -1.424,-0.375c-0.417,-0.25 -0.748,-0.6136 -0.992,-1.0909c-0.242,-0.4773 -0.363,-1.0568 -0.363,-1.7386c0,-0.6705 0.118,-1.2543 0.354,-1.7514c0.236,-0.5 0.564,-0.8864 0.984,-1.15913c0.421,-0.27557 0.907,-0.41335 1.458,-0.41335c0.426,0 0.764,0.07102 1.014,0.21307c0.253,0.1392 0.446,0.29829 0.58,0.47731c0.136,0.1761 0.241,0.321 0.315,0.4346l0.102,0l0,-1.03975l0.972,0l0,6.73295c0,0.5625 -0.128,1.0199 -0.384,1.3722c-0.253,0.3551 -0.594,0.615 -1.023,0.7798c-0.426,0.1676 -0.9,0.2514 -1.423,0.2514zm-0.034,-3.5966c0.404,0 0.744,-0.0923 1.023,-0.277c0.278,-0.1846 0.49,-0.4503 0.635,-0.7968c0.145,-0.3466 0.217,-0.7614 0.217,-1.2444c0,-0.4716 -0.071,-0.8877 -0.213,-1.2485c-0.142,-0.3608 -0.352,-0.6435 -0.631,-0.8481c-0.278,-0.2045 -0.622,-0.3068 -1.031,-0.3068c-0.426,0 -0.781,0.108 -1.065,0.3239c-0.281,0.2159 -0.493,0.5057 -0.635,0.8693c-0.139,0.3636 -0.209,0.7671 -0.209,1.2102c0,0.4546 0.071,0.8566 0.213,1.206c0.145,0.3466 0.358,0.6193 0.639,0.8182c0.284,0.196 0.637,0.294 1.057,0.294z"/>
 </g>
</svg>