<svg width="149" height="21" viewBox="0 0 149 21" fill="none" xmlns="http://www.w3.org/2000/svg">
<path d="M26.0568 17V8.27273H29.0057C29.6903 8.27273 30.25 8.39631 30.6847 8.64347C31.1222 8.88778 31.446 9.21875 31.6562 9.63636C31.8665 10.054 31.9716 10.5199 31.9716 11.0341C31.9716 11.5483 31.8665 12.0156 31.6562 12.4361C31.4489 12.8565 31.1278 13.1918 30.6932 13.4418C30.2585 13.6889 29.7017 13.8125 29.0227 13.8125H26.9091V12.875H28.9886C29.4574 12.875 29.8338 12.794 30.1179 12.6321C30.402 12.4702 30.608 12.2514 30.7358 11.9759C30.8665 11.6974 30.9318 11.3835 30.9318 11.0341C30.9318 10.6847 30.8665 10.3722 30.7358 10.0966C30.608 9.82102 30.4006 9.60511 30.1136 9.44886C29.8267 9.28977 29.446 9.21023 28.9716 9.21023H27.1136V17H26.0568ZM36.1264 17.1364C35.5355 17.1364 35.017 16.9957 34.571 16.7145C34.1278 16.4332 33.7812 16.0398 33.5312 15.5341C33.2841 15.0284 33.1605 14.4375 33.1605 13.7614C33.1605 13.0795 33.2841 12.4844 33.5312 11.9759C33.7812 11.4673 34.1278 11.0724 34.571 10.7912C35.017 10.5099 35.5355 10.3693 36.1264 10.3693C36.7173 10.3693 37.2344 10.5099 37.6776 10.7912C38.1236 11.0724 38.4702 11.4673 38.7173 11.9759C38.9673 12.4844 39.0923 13.0795 39.0923 13.7614C39.0923 14.4375 38.9673 15.0284 38.7173 15.5341C38.4702 16.0398 38.1236 16.4332 37.6776 16.7145C37.2344 16.9957 36.7173 17.1364 36.1264 17.1364ZM36.1264 16.233C36.5753 16.233 36.9446 16.1179 37.2344 15.8878C37.5241 15.6577 37.7386 15.3551 37.8778 14.9801C38.017 14.6051 38.0866 14.1989 38.0866 13.7614C38.0866 13.3239 38.017 12.9162 37.8778 12.5384C37.7386 12.1605 37.5241 11.8551 37.2344 11.6222C36.9446 11.3892 36.5753 11.2727 36.1264 11.2727C35.6776 11.2727 35.3082 11.3892 35.0185 11.6222C34.7287 11.8551 34.5142 12.1605 34.375 12.5384C34.2358 12.9162 34.1662 13.3239 34.1662 13.7614C34.1662 14.1989 34.2358 14.6051 34.375 14.9801C34.5142 15.3551 34.7287 15.6577 35.0185 15.8878C35.3082 16.1179 35.6776 16.233 36.1264 16.233ZM43.4741 10.4545V11.3068H40.082V10.4545H43.4741ZM41.0707 8.88636H42.0763V15.125C42.0763 15.4091 42.1175 15.6222 42.1999 15.7642C42.2852 15.9034 42.3931 15.9972 42.5238 16.0455C42.6573 16.0909 42.7979 16.1136 42.9457 16.1136C43.0565 16.1136 43.1474 16.108 43.2184 16.0966C43.2894 16.0824 43.3462 16.071 43.3888 16.0625L43.5934 16.9659C43.5252 16.9915 43.43 17.017 43.3079 17.0426C43.1857 17.071 43.0309 17.0852 42.8434 17.0852C42.5593 17.0852 42.2809 17.0241 42.0082 16.902C41.7383 16.7798 41.5138 16.5938 41.3349 16.3438C41.1587 16.0938 41.0707 15.7784 41.0707 15.3977V8.88636ZM47.6609 17.1364C47.0302 17.1364 46.4862 16.9972 46.0288 16.7188C45.5742 16.4375 45.2234 16.0455 44.9762 15.5426C44.7319 15.0369 44.6097 14.4489 44.6097 13.7784C44.6097 13.108 44.7319 12.517 44.9762 12.0057C45.2234 11.4915 45.5671 11.0909 46.0075 10.804C46.4506 10.5142 46.9677 10.3693 47.5586 10.3693C47.8995 10.3693 48.2362 10.4261 48.5685 10.5398C48.9009 10.6534 49.2035 10.8381 49.4762 11.0938C49.7489 11.3466 49.9663 11.6818 50.1282 12.0994C50.2901 12.517 50.3711 13.0312 50.3711 13.642V14.0682H45.3256V13.1989H49.3484C49.3484 12.8295 49.2745 12.5 49.1268 12.2102C48.9819 11.9205 48.7745 11.6918 48.5046 11.5241C48.2376 11.3565 47.9222 11.2727 47.5586 11.2727C47.158 11.2727 46.8114 11.3722 46.5188 11.571C46.229 11.767 46.006 12.0227 45.8498 12.3381C45.6935 12.6534 45.6154 12.9915 45.6154 13.3523V13.9318C45.6154 14.4261 45.7006 14.8452 45.8711 15.1889C46.0444 15.5298 46.2844 15.7898 46.5913 15.9688C46.8981 16.1449 47.2546 16.233 47.6609 16.233C47.9251 16.233 48.1637 16.196 48.3768 16.1222C48.5927 16.0455 48.7788 15.9318 48.935 15.7812C49.0913 15.6278 49.212 15.4375 49.2972 15.2102L50.2688 15.483C50.1665 15.8125 49.9947 16.1023 49.7532 16.3523C49.5117 16.5994 49.2134 16.7926 48.8583 16.9318C48.5032 17.0682 48.104 17.1364 47.6609 17.1364ZM52.9066 13.0625V17H51.9009V10.4545H52.8725V11.4773H52.9577C53.1112 11.1449 53.3441 10.8778 53.6566 10.6761C53.9691 10.4716 54.3725 10.3693 54.8668 10.3693C55.31 10.3693 55.6978 10.4602 56.0302 10.642C56.3626 10.821 56.6211 11.0938 56.8058 11.4602C56.9904 11.8239 57.0827 12.2841 57.0827 12.8409V17H56.0771V12.9091C56.0771 12.3949 55.9435 11.9943 55.6765 11.7074C55.4094 11.4176 55.043 11.2727 54.5771 11.2727C54.256 11.2727 53.9691 11.3423 53.7163 11.4815C53.4663 11.6207 53.2688 11.8239 53.1239 12.0909C52.979 12.358 52.9066 12.6818 52.9066 13.0625ZM61.767 10.4545V11.3068H58.375V10.4545H61.767ZM59.3636 8.88636H60.3693V15.125C60.3693 15.4091 60.4105 15.6222 60.4929 15.7642C60.5781 15.9034 60.6861 15.9972 60.8168 16.0455C60.9503 16.0909 61.0909 16.1136 61.2386 16.1136C61.3494 16.1136 61.4403 16.108 61.5114 16.0966C61.5824 16.0824 61.6392 16.071 61.6818 16.0625L61.8864 16.9659C61.8182 16.9915 61.723 17.017 61.6009 17.0426C61.4787 17.071 61.3239 17.0852 61.1364 17.0852C60.8523 17.0852 60.5739 17.0241 60.3011 16.902C60.0313 16.7798 59.8068 16.5938 59.6278 16.3438C59.4517 16.0938 59.3636 15.7784 59.3636 15.3977V8.88636ZM63.2798 17V10.4545H64.2855V17H63.2798ZM63.7912 9.36364C63.5952 9.36364 63.4261 9.29688 63.2841 9.16335C63.1449 9.02983 63.0753 8.86932 63.0753 8.68182C63.0753 8.49432 63.1449 8.33381 63.2841 8.20028C63.4261 8.06676 63.5952 8 63.7912 8C63.9872 8 64.1548 8.06676 64.294 8.20028C64.4361 8.33381 64.5071 8.49432 64.5071 8.68182C64.5071 8.86932 64.4361 9.02983 64.294 9.16335C64.1548 9.29688 63.9872 9.36364 63.7912 9.36364ZM68.0536 17.1534C67.6388 17.1534 67.2624 17.0753 66.9244 16.919C66.5863 16.7599 66.3178 16.5312 66.119 16.233C65.9201 15.9318 65.8207 15.5682 65.8207 15.142C65.8207 14.767 65.8945 14.4631 66.0423 14.2301C66.19 13.9943 66.3874 13.8097 66.6346 13.6761C66.8817 13.5426 67.1545 13.4432 67.4528 13.3778C67.7539 13.3097 68.0565 13.2557 68.3604 13.2159C68.7582 13.1648 69.0806 13.1264 69.3278 13.1009C69.5778 13.0724 69.7596 13.0256 69.8732 12.9602C69.9897 12.8949 70.0479 12.7812 70.0479 12.6193V12.5852C70.0479 12.1648 69.9329 11.8381 69.7028 11.6051C69.4755 11.3722 69.1303 11.2557 68.6673 11.2557C68.1871 11.2557 67.8107 11.3608 67.538 11.571C67.2653 11.7812 67.0735 12.0057 66.9627 12.2443L66.0082 11.9034C66.1786 11.5057 66.4059 11.196 66.69 10.9744C66.9769 10.75 67.2894 10.5937 67.6275 10.5057C67.9684 10.4148 68.3036 10.3693 68.6332 10.3693C68.8434 10.3693 69.0849 10.3949 69.3576 10.446C69.6332 10.4943 69.8988 10.5952 70.1545 10.7486C70.413 10.902 70.6275 11.1335 70.7979 11.4432C70.9684 11.7528 71.0536 12.1676 71.0536 12.6875V17H70.0479V16.1136H69.9968C69.9286 16.2557 69.815 16.4077 69.6559 16.5696C69.4968 16.7315 69.2852 16.8693 69.021 16.983C68.7567 17.0966 68.4343 17.1534 68.0536 17.1534ZM68.207 16.25C68.6048 16.25 68.94 16.1719 69.2127 16.0156C69.4883 15.8594 69.6957 15.6577 69.8349 15.4105C69.9769 15.1634 70.0479 14.9034 70.0479 14.6307V13.7102C70.0053 13.7614 69.9116 13.8082 69.7667 13.8509C69.6246 13.8906 69.4599 13.9261 69.2724 13.9574C69.0877 13.9858 68.9073 14.0114 68.7312 14.0341C68.5579 14.054 68.4173 14.071 68.3093 14.0852C68.0479 14.1193 67.8036 14.1747 67.5763 14.2514C67.3519 14.3253 67.1701 14.4375 67.0309 14.5881C66.8945 14.7358 66.8263 14.9375 66.8263 15.1932C66.8263 15.5426 66.9556 15.8068 67.2141 15.9858C67.4755 16.1619 67.8065 16.25 68.207 16.25ZM73.8949 8.27273V17H72.8892V8.27273H73.8949ZM76.7425 8.27273V17H75.7369V8.27273H76.7425ZM79.2322 19.4545C79.0618 19.4545 78.9098 19.4403 78.7763 19.4119C78.6428 19.3864 78.5504 19.3608 78.4993 19.3352L78.755 18.4489C78.9993 18.5114 79.2152 18.5341 79.4027 18.517C79.5902 18.5 79.7564 18.4162 79.9013 18.2656C80.049 18.1179 80.1839 17.8778 80.3061 17.5455L80.4936 17.0341L78.0732 10.4545H79.1641L80.9709 15.6705H81.0391L82.8459 10.4545H83.9368L81.1584 17.9545C81.0334 18.2926 80.8786 18.5724 80.6939 18.794C80.5092 19.0185 80.2947 19.1847 80.0504 19.2926C79.8089 19.4006 79.5362 19.4545 79.2322 19.4545ZM88.6392 17V10.4545H89.6108V11.4773H89.696C89.8324 11.1278 90.0526 10.8565 90.3565 10.6634C90.6605 10.4673 91.0256 10.3693 91.4517 10.3693C91.8835 10.3693 92.2429 10.4673 92.5298 10.6634C92.8196 10.8565 93.0455 11.1278 93.2074 11.4773H93.2756C93.4432 11.1392 93.6946 10.8707 94.0298 10.6719C94.3651 10.4702 94.767 10.3693 95.2358 10.3693C95.821 10.3693 96.2997 10.5526 96.6719 10.919C97.044 11.2827 97.2301 11.8494 97.2301 12.6193V17H96.2244V12.6193C96.2244 12.1364 96.0923 11.7912 95.8281 11.5838C95.5639 11.3764 95.2528 11.2727 94.8949 11.2727C94.4347 11.2727 94.0781 11.4119 93.8253 11.6903C93.5724 11.9659 93.446 12.3153 93.446 12.7386V17H92.4233V12.517C92.4233 12.1449 92.3026 11.8452 92.0611 11.6179C91.8196 11.3878 91.5085 11.2727 91.1278 11.2727C90.8665 11.2727 90.6222 11.3423 90.3949 11.4815C90.1705 11.6207 89.9886 11.8139 89.8494 12.0611C89.7131 12.3054 89.6449 12.5881 89.6449 12.9091V17H88.6392ZM99.0689 17V10.4545H100.075V17H99.0689ZM99.5803 9.36364C99.3842 9.36364 99.2152 9.29688 99.0732 9.16335C98.9339 9.02983 98.8643 8.86932 98.8643 8.68182C98.8643 8.49432 98.9339 8.33381 99.0732 8.20028C99.2152 8.06676 99.3842 8 99.5803 8C99.7763 8 99.9439 8.06676 100.083 8.20028C100.225 8.33381 100.296 8.49432 100.296 8.68182C100.296 8.86932 100.225 9.02983 100.083 9.16335C99.9439 9.29688 99.7763 9.36364 99.5803 9.36364ZM106.553 11.9205L105.65 12.1761C105.593 12.0256 105.509 11.8793 105.398 11.7372C105.29 11.5923 105.142 11.473 104.955 11.3793C104.767 11.2855 104.527 11.2386 104.235 11.2386C103.834 11.2386 103.5 11.331 103.233 11.5156C102.969 11.6974 102.837 11.929 102.837 12.2102C102.837 12.4602 102.928 12.6577 103.11 12.8026C103.292 12.9474 103.576 13.0682 103.962 13.1648L104.934 13.4034C105.519 13.5455 105.955 13.7628 106.242 14.0554C106.529 14.3452 106.672 14.7187 106.672 15.1761C106.672 15.5511 106.564 15.8864 106.348 16.1818C106.135 16.4773 105.837 16.7102 105.453 16.8807C105.07 17.0511 104.624 17.1364 104.115 17.1364C103.448 17.1364 102.895 16.9915 102.458 16.7017C102.02 16.4119 101.743 15.9886 101.627 15.4318L102.581 15.1932C102.672 15.5455 102.844 15.8097 103.097 15.9858C103.353 16.1619 103.686 16.25 104.098 16.25C104.567 16.25 104.939 16.1506 105.215 15.9517C105.493 15.75 105.632 15.5085 105.632 15.2273C105.632 15 105.553 14.8097 105.394 14.6562C105.235 14.5 104.99 14.3835 104.661 14.3068L103.57 14.0511C102.971 13.9091 102.53 13.6889 102.249 13.3906C101.971 13.0895 101.831 12.7131 101.831 12.2614C101.831 11.892 101.935 11.5653 102.142 11.2812C102.353 10.9972 102.638 10.7741 102.999 10.6122C103.363 10.4503 103.775 10.3693 104.235 10.3693C104.882 10.3693 105.391 10.5114 105.76 10.7955C106.132 11.0795 106.397 11.4545 106.553 11.9205ZM109.192 8.27273V17H108.186V8.27273H109.192ZM113.778 17.1364C113.147 17.1364 112.603 16.9972 112.146 16.7188C111.691 16.4375 111.341 16.0455 111.093 15.5426C110.849 15.0369 110.727 14.4489 110.727 13.7784C110.727 13.108 110.849 12.517 111.093 12.0057C111.341 11.4915 111.684 11.0909 112.125 10.804C112.568 10.5142 113.085 10.3693 113.676 10.3693C114.017 10.3693 114.353 10.4261 114.686 10.5398C115.018 10.6534 115.321 10.8381 115.593 11.0938C115.866 11.3466 116.083 11.6818 116.245 12.0994C116.407 12.517 116.488 13.0312 116.488 13.642V14.0682H111.443V13.1989H115.466C115.466 12.8295 115.392 12.5 115.244 12.2102C115.099 11.9205 114.892 11.6918 114.622 11.5241C114.355 11.3565 114.039 11.2727 113.676 11.2727C113.275 11.2727 112.929 11.3722 112.636 11.571C112.346 11.767 112.123 12.0227 111.967 12.3381C111.811 12.6534 111.733 12.9915 111.733 13.3523V13.9318C111.733 14.4261 111.818 14.8452 111.988 15.1889C112.162 15.5298 112.402 15.7898 112.708 15.9688C113.015 16.1449 113.372 16.233 113.778 16.233C114.042 16.233 114.281 16.196 114.494 16.1222C114.71 16.0455 114.896 15.9318 115.052 15.7812C115.208 15.6278 115.329 15.4375 115.414 15.2102L116.386 15.483C116.284 15.8125 116.112 16.1023 115.87 16.3523C115.629 16.5994 115.331 16.7926 114.975 16.9318C114.62 17.0682 114.221 17.1364 113.778 17.1364ZM119.944 17.1534C119.529 17.1534 119.153 17.0753 118.815 16.919C118.477 16.7599 118.208 16.5312 118.01 16.233C117.811 15.9318 117.711 15.5682 117.711 15.142C117.711 14.767 117.785 14.4631 117.933 14.2301C118.081 13.9943 118.278 13.8097 118.525 13.6761C118.772 13.5426 119.045 13.4432 119.343 13.3778C119.645 13.3097 119.947 13.2557 120.251 13.2159C120.649 13.1648 120.971 13.1264 121.218 13.1009C121.468 13.0724 121.65 13.0256 121.764 12.9602C121.88 12.8949 121.939 12.7812 121.939 12.6193V12.5852C121.939 12.1648 121.824 11.8381 121.593 11.6051C121.366 11.3722 121.021 11.2557 120.558 11.2557C120.078 11.2557 119.701 11.3608 119.429 11.571C119.156 11.7812 118.964 12.0057 118.853 12.2443L117.899 11.9034C118.069 11.5057 118.297 11.196 118.581 10.9744C118.868 10.75 119.18 10.5937 119.518 10.5057C119.859 10.4148 120.194 10.3693 120.524 10.3693C120.734 10.3693 120.975 10.3949 121.248 10.446C121.524 10.4943 121.789 10.5952 122.045 10.7486C122.304 10.902 122.518 11.1335 122.689 11.4432C122.859 11.7528 122.944 12.1676 122.944 12.6875V17H121.939V16.1136H121.887C121.819 16.2557 121.706 16.4077 121.547 16.5696C121.387 16.7315 121.176 16.8693 120.912 16.983C120.647 17.0966 120.325 17.1534 119.944 17.1534ZM120.098 16.25C120.495 16.25 120.831 16.1719 121.103 16.0156C121.379 15.8594 121.586 15.6577 121.725 15.4105C121.868 15.1634 121.939 14.9034 121.939 14.6307V13.7102C121.896 13.7614 121.802 13.8082 121.657 13.8509C121.515 13.8906 121.35 13.9261 121.163 13.9574C120.978 13.9858 120.798 14.0114 120.622 14.0341C120.449 14.054 120.308 14.071 120.2 14.0852C119.939 14.1193 119.694 14.1747 119.467 14.2514C119.243 14.3253 119.061 14.4375 118.922 14.5881C118.785 14.7358 118.717 14.9375 118.717 15.1932C118.717 15.5426 118.846 15.8068 119.105 15.9858C119.366 16.1619 119.697 16.25 120.098 16.25ZM127.251 17.1364C126.706 17.1364 126.224 16.9986 125.807 16.723C125.389 16.4446 125.063 16.0526 124.827 15.5469C124.591 15.0384 124.473 14.4375 124.473 13.7443C124.473 13.0568 124.591 12.4602 124.827 11.9545C125.063 11.4489 125.391 11.0582 125.811 10.7827C126.232 10.5071 126.717 10.3693 127.268 10.3693C127.695 10.3693 128.031 10.4403 128.278 10.5824C128.528 10.7216 128.719 10.8807 128.849 11.0597C128.983 11.2358 129.087 11.3807 129.161 11.4943H129.246V8.27273H130.251V17H129.28V15.9943H129.161C129.087 16.1136 128.982 16.2642 128.845 16.446C128.709 16.625 128.514 16.7855 128.261 16.9276C128.009 17.0668 127.672 17.1364 127.251 17.1364ZM127.388 16.233C127.791 16.233 128.132 16.1278 128.411 15.9176C128.689 15.7045 128.901 15.4105 129.045 15.0355C129.19 14.6577 129.263 14.2216 129.263 13.7273C129.263 13.2386 129.192 12.8111 129.05 12.4446C128.908 12.0753 128.697 11.7884 128.419 11.5838C128.141 11.3764 127.797 11.2727 127.388 11.2727C126.962 11.2727 126.607 11.3821 126.322 11.6009C126.041 11.8168 125.83 12.1108 125.688 12.483C125.548 12.8523 125.479 13.267 125.479 13.7273C125.479 14.1932 125.55 14.6165 125.692 14.9972C125.837 15.375 126.05 15.6761 126.331 15.9006C126.615 16.1222 126.967 16.233 127.388 16.233ZM132.233 17V10.4545H133.239V17H132.233ZM132.744 9.36364C132.548 9.36364 132.379 9.29688 132.237 9.16335C132.098 9.02983 132.028 8.86932 132.028 8.68182C132.028 8.49432 132.098 8.33381 132.237 8.20028C132.379 8.06676 132.548 8 132.744 8C132.94 8 133.108 8.06676 133.247 8.20028C133.389 8.33381 133.46 8.49432 133.46 8.68182C133.46 8.86932 133.389 9.02983 133.247 9.16335C133.108 9.29688 132.94 9.36364 132.744 9.36364ZM136.086 13.0625V17H135.081V10.4545H136.052V11.4773H136.137C136.291 11.1449 136.524 10.8778 136.836 10.6761C137.149 10.4716 137.552 10.3693 138.047 10.3693C138.49 10.3693 138.877 10.4602 139.21 10.642C139.542 10.821 139.801 11.0938 139.985 11.4602C140.17 11.8239 140.262 12.2841 140.262 12.8409V17H139.257V12.9091C139.257 12.3949 139.123 11.9943 138.856 11.7074C138.589 11.4176 138.223 11.2727 137.757 11.2727C137.436 11.2727 137.149 11.3423 136.896 11.4815C136.646 11.6207 136.449 11.8239 136.304 12.0909C136.159 12.358 136.086 12.6818 136.086 13.0625ZM144.742 19.5909C144.256 19.5909 143.839 19.5284 143.489 19.4034C143.14 19.2812 142.849 19.1193 142.616 18.9176C142.386 18.7188 142.202 18.5057 142.066 18.2784L142.867 17.7159C142.958 17.8352 143.073 17.9716 143.212 18.125C143.352 18.2812 143.542 18.4162 143.783 18.5298C144.028 18.6463 144.347 18.7045 144.742 18.7045C145.271 18.7045 145.707 18.5767 146.05 18.321C146.394 18.0653 146.566 17.6648 146.566 17.1193V15.7898H146.481C146.407 15.9091 146.302 16.0568 146.165 16.233C146.032 16.4062 145.839 16.5611 145.586 16.6974C145.336 16.831 144.998 16.8977 144.572 16.8977C144.043 16.8977 143.569 16.7727 143.148 16.5227C142.731 16.2727 142.4 15.9091 142.156 15.4318C141.914 14.9545 141.793 14.375 141.793 13.6932C141.793 13.0227 141.911 12.4389 142.147 11.9418C142.383 11.4418 142.711 11.0554 143.131 10.7827C143.552 10.5071 144.038 10.3693 144.589 10.3693C145.015 10.3693 145.353 10.4403 145.603 10.5824C145.856 10.7216 146.049 10.8807 146.183 11.0597C146.319 11.2358 146.424 11.3807 146.498 11.4943H146.6V10.4545H147.572V17.1875C147.572 17.75 147.444 18.2074 147.188 18.5597C146.935 18.9148 146.594 19.1747 146.165 19.3395C145.739 19.5071 145.265 19.5909 144.742 19.5909ZM144.708 15.9943C145.112 15.9943 145.452 15.902 145.731 15.7173C146.009 15.5327 146.221 15.267 146.366 14.9205C146.511 14.5739 146.583 14.1591 146.583 13.6761C146.583 13.2045 146.512 12.7884 146.37 12.4276C146.228 12.0668 146.018 11.7841 145.739 11.5795C145.461 11.375 145.117 11.2727 144.708 11.2727C144.282 11.2727 143.927 11.3807 143.643 11.5966C143.362 11.8125 143.15 12.1023 143.008 12.4659C142.869 12.8295 142.799 13.233 142.799 13.6761C142.799 14.1307 142.87 14.5327 143.012 14.8821C143.157 15.2287 143.37 15.5014 143.651 15.7003C143.935 15.8963 144.288 15.9943 144.708 15.9943Z" fill="#DB0000"/>
<path d="M14.0625 7.4375L8.85417 11.8125M8.85417 7.4375L14.0625 11.8125M21.875 18.375L17.3958 14.6125M19.7917 9.625C19.7917 13.491 16.0607 16.625 11.4583 16.625C6.85596 16.625 3.125 13.491 3.125 9.625C3.125 5.75901 6.85596 2.625 11.4583 2.625C16.0607 2.625 19.7917 5.75901 19.7917 9.625Z" stroke="#DB0000" stroke-width="2" stroke-linecap="round" stroke-linejoin="round"/>
</svg>
