<svg width="154" height="24" viewBox="0 0 154 24" fill="none" xmlns="http://www.w3.org/2000/svg">
<path d="M0.623956 7.21805C0.623956 7.21805 -0.428847 8.45113 0.950688 10.0451C0.950688 10.0451 1.16851 9.23308 3.34672 9.23308H5.96058C8.42922 9.23308 10.2807 7.2782 9.11899 5.26316C9.11899 5.26316 10.8616 5.41353 11.4424 4.51128C12.0233 3.60902 11.4061 3.24812 10.5348 3.24812H6.1421C6.1421 3.89474 4.65365 3.98496 4.65365 3.24812H2.18501C2.18501 3.24812 0.333528 3.24812 0.297224 4.54135C0.297224 4.54135 0.714715 4.33083 1.13221 4.30075V4.64662C1.13221 4.64662 0.623956 4.7218 0.387983 4.82707C0.15201 4.93233 -0.192874 5.21805 0.133858 5.95489C0.46059 6.69173 0.587653 6.94737 0.587653 6.94737C0.587653 6.94737 1.11405 6.57143 1.96719 6.57143H2.96554C4.74441 6.57143 4.41768 8 2.6388 8C0.85993 8 0.623956 7.21805 0.623956 7.21805Z" fill="#DB0000"/>
<path d="M9.89952 5.72932C9.89952 5.72932 10.4985 5.7594 10.9342 5.44361C10.9342 5.44361 14.8731 7.98496 9.02823 13.0977C3.18336 18.2105 7.70315 21.5188 7.70315 21.5188C7.70315 21.5188 6.65035 22.3609 7.24936 24C7.24936 24 4.81847 22.862 2.95973 20.9323C0.271813 18.142 -1.36983 13.8713 6.00923 10.4662C6.00923 10.4662 10.8797 8.43609 9.89952 5.72932Z" fill="#DB0000"/>
<path d="M3.87966 2.76692C3.87966 2.76692 4.666 1.60421 6.49352 1.60421C7.93332 1.60421 8.26005 0.992481 8.26005 0.992481C8.26005 0.992481 8.88955 0 12.0596 0C14.9653 0 16.9243 0.801805 18.51 1.87489C18.51 1.87489 14.2385 -0.320602 10.0273 2.76692H3.87966Z" fill="#DB0000"/>
<path d="M21.6437 10.1251C21.5225 6.49624 18.1346 2.60632 10.8492 2.82707C17.9647 -2.16541 30.3079 8.98226 20.1429 14.8373C20.1429 14.8373 21.8426 12.8289 21.6437 10.1257V10.1251Z" fill="#DB0000"/>
<path d="M11.9391 3.22827C20.8211 3.00752 23.9918 11.8298 18.2559 15.7997L12.496 18.1053C12.496 18.1053 11.7459 16.1005 14.529 13.7546C17.312 11.4087 19.9984 7.01775 12.3021 4.13053C12.3021 4.13053 12.4473 3.52902 11.9391 3.22827Z" fill="#DB0000"/>
<path d="M11.4787 5.21323C11.4787 5.21323 11.9144 4.87218 12.0596 4.59188C18.6668 6.87759 17.6264 10.7471 13.6809 13.9952C11.2609 16.0601 12.0109 18.2857 12.0109 18.2857C12.0109 18.2857 9.05799 19.8093 8.04149 21.1326C8.04149 21.1326 3.76856 18.1179 9.6875 13.1128C15.4961 8.2003 11.4787 5.21323 11.4787 5.21323Z" fill="#DB0000"/>
<path d="M31.0568 16V7.27273H34.0057C34.6903 7.27273 35.25 7.39631 35.6847 7.64347C36.1222 7.88778 36.446 8.21875 36.6562 8.63636C36.8665 9.05398 36.9716 9.51989 36.9716 10.0341C36.9716 10.5483 36.8665 11.0156 36.6562 11.4361C36.4489 11.8565 36.1278 12.1918 35.6932 12.4418C35.2585 12.6889 34.7017 12.8125 34.0227 12.8125H31.9091V11.875H33.9886C34.4574 11.875 34.8338 11.794 35.1179 11.6321C35.402 11.4702 35.608 11.2514 35.7358 10.9759C35.8665 10.6974 35.9318 10.3835 35.9318 10.0341C35.9318 9.68466 35.8665 9.37216 35.7358 9.09659C35.608 8.82102 35.4006 8.60511 35.1136 8.44886C34.8267 8.28977 34.446 8.21023 33.9716 8.21023H32.1136V16H31.0568ZM41.1264 16.1364C40.5355 16.1364 40.017 15.9957 39.571 15.7145C39.1278 15.4332 38.7812 15.0398 38.5312 14.5341C38.2841 14.0284 38.1605 13.4375 38.1605 12.7614C38.1605 12.0795 38.2841 11.4844 38.5312 10.9759C38.7812 10.4673 39.1278 10.0724 39.571 9.79119C40.017 9.50994 40.5355 9.36932 41.1264 9.36932C41.7173 9.36932 42.2344 9.50994 42.6776 9.79119C43.1236 10.0724 43.4702 10.4673 43.7173 10.9759C43.9673 11.4844 44.0923 12.0795 44.0923 12.7614C44.0923 13.4375 43.9673 14.0284 43.7173 14.5341C43.4702 15.0398 43.1236 15.4332 42.6776 15.7145C42.2344 15.9957 41.7173 16.1364 41.1264 16.1364ZM41.1264 15.233C41.5753 15.233 41.9446 15.1179 42.2344 14.8878C42.5241 14.6577 42.7386 14.3551 42.8778 13.9801C43.017 13.6051 43.0866 13.1989 43.0866 12.7614C43.0866 12.3239 43.017 11.9162 42.8778 11.5384C42.7386 11.1605 42.5241 10.8551 42.2344 10.6222C41.9446 10.3892 41.5753 10.2727 41.1264 10.2727C40.6776 10.2727 40.3082 10.3892 40.0185 10.6222C39.7287 10.8551 39.5142 11.1605 39.375 11.5384C39.2358 11.9162 39.1662 12.3239 39.1662 12.7614C39.1662 13.1989 39.2358 13.6051 39.375 13.9801C39.5142 14.3551 39.7287 14.6577 40.0185 14.8878C40.3082 15.1179 40.6776 15.233 41.1264 15.233ZM48.4741 9.45455V10.3068H45.082V9.45455H48.4741ZM46.0707 7.88636H47.0763V14.125C47.0763 14.4091 47.1175 14.6222 47.1999 14.7642C47.2852 14.9034 47.3931 14.9972 47.5238 15.0455C47.6573 15.0909 47.7979 15.1136 47.9457 15.1136C48.0565 15.1136 48.1474 15.108 48.2184 15.0966C48.2894 15.0824 48.3462 15.071 48.3888 15.0625L48.5934 15.9659C48.5252 15.9915 48.43 16.017 48.3079 16.0426C48.1857 16.071 48.0309 16.0852 47.8434 16.0852C47.5593 16.0852 47.2809 16.0241 47.0082 15.902C46.7383 15.7798 46.5138 15.5938 46.3349 15.3438C46.1587 15.0938 46.0707 14.7784 46.0707 14.3977V7.88636ZM52.6609 16.1364C52.0302 16.1364 51.4862 15.9972 51.0288 15.7188C50.5742 15.4375 50.2234 15.0455 49.9762 14.5426C49.7319 14.0369 49.6097 13.4489 49.6097 12.7784C49.6097 12.108 49.7319 11.517 49.9762 11.0057C50.2234 10.4915 50.5671 10.0909 51.0075 9.80398C51.4506 9.5142 51.9677 9.36932 52.5586 9.36932C52.8995 9.36932 53.2362 9.42614 53.5685 9.53977C53.9009 9.65341 54.2035 9.83807 54.4762 10.0938C54.7489 10.3466 54.9663 10.6818 55.1282 11.0994C55.2901 11.517 55.3711 12.0312 55.3711 12.642V13.0682H50.3256V12.1989H54.3484C54.3484 11.8295 54.2745 11.5 54.1268 11.2102C53.9819 10.9205 53.7745 10.6918 53.5046 10.5241C53.2376 10.3565 52.9222 10.2727 52.5586 10.2727C52.158 10.2727 51.8114 10.3722 51.5188 10.571C51.229 10.767 51.006 11.0227 50.8498 11.3381C50.6935 11.6534 50.6154 11.9915 50.6154 12.3523V12.9318C50.6154 13.4261 50.7006 13.8452 50.8711 14.1889C51.0444 14.5298 51.2844 14.7898 51.5913 14.9688C51.8981 15.1449 52.2546 15.233 52.6609 15.233C52.9251 15.233 53.1637 15.196 53.3768 15.1222C53.5927 15.0455 53.7788 14.9318 53.935 14.7812C54.0913 14.6278 54.212 14.4375 54.2972 14.2102L55.2688 14.483C55.1665 14.8125 54.9947 15.1023 54.7532 15.3523C54.5117 15.5994 54.2134 15.7926 53.8583 15.9318C53.5032 16.0682 53.104 16.1364 52.6609 16.1364ZM57.9066 12.0625V16H56.9009V9.45455H57.8725V10.4773H57.9577C58.1112 10.1449 58.3441 9.87784 58.6566 9.67614C58.9691 9.47159 59.3725 9.36932 59.8668 9.36932C60.31 9.36932 60.6978 9.46023 61.0302 9.64205C61.3626 9.82102 61.6211 10.0938 61.8058 10.4602C61.9904 10.8239 62.0827 11.2841 62.0827 11.8409V16H61.0771V11.9091C61.0771 11.3949 60.9435 10.9943 60.6765 10.7074C60.4094 10.4176 60.043 10.2727 59.5771 10.2727C59.256 10.2727 58.9691 10.3423 58.7163 10.4815C58.4663 10.6207 58.2688 10.8239 58.1239 11.0909C57.979 11.358 57.9066 11.6818 57.9066 12.0625ZM66.767 9.45455V10.3068H63.375V9.45455H66.767ZM64.3636 7.88636H65.3693V14.125C65.3693 14.4091 65.4105 14.6222 65.4929 14.7642C65.5781 14.9034 65.6861 14.9972 65.8168 15.0455C65.9503 15.0909 66.0909 15.1136 66.2386 15.1136C66.3494 15.1136 66.4403 15.108 66.5114 15.0966C66.5824 15.0824 66.6392 15.071 66.6818 15.0625L66.8864 15.9659C66.8182 15.9915 66.723 16.017 66.6009 16.0426C66.4787 16.071 66.3239 16.0852 66.1364 16.0852C65.8523 16.0852 65.5739 16.0241 65.3011 15.902C65.0313 15.7798 64.8068 15.5938 64.6278 15.3438C64.4517 15.0938 64.3636 14.7784 64.3636 14.3977V7.88636ZM68.2798 16V9.45455H69.2855V16H68.2798ZM68.7912 8.36364C68.5952 8.36364 68.4261 8.29688 68.2841 8.16335C68.1449 8.02983 68.0753 7.86932 68.0753 7.68182C68.0753 7.49432 68.1449 7.33381 68.2841 7.20028C68.4261 7.06676 68.5952 7 68.7912 7C68.9872 7 69.1548 7.06676 69.294 7.20028C69.4361 7.33381 69.5071 7.49432 69.5071 7.68182C69.5071 7.86932 69.4361 8.02983 69.294 8.16335C69.1548 8.29688 68.9872 8.36364 68.7912 8.36364ZM73.0536 16.1534C72.6388 16.1534 72.2624 16.0753 71.9244 15.919C71.5863 15.7599 71.3178 15.5312 71.119 15.233C70.9201 14.9318 70.8207 14.5682 70.8207 14.142C70.8207 13.767 70.8945 13.4631 71.0423 13.2301C71.19 12.9943 71.3874 12.8097 71.6346 12.6761C71.8817 12.5426 72.1545 12.4432 72.4528 12.3778C72.7539 12.3097 73.0565 12.2557 73.3604 12.2159C73.7582 12.1648 74.0806 12.1264 74.3278 12.1009C74.5778 12.0724 74.7596 12.0256 74.8732 11.9602C74.9897 11.8949 75.0479 11.7812 75.0479 11.6193V11.5852C75.0479 11.1648 74.9329 10.8381 74.7028 10.6051C74.4755 10.3722 74.1303 10.2557 73.6673 10.2557C73.1871 10.2557 72.8107 10.3608 72.538 10.571C72.2653 10.7812 72.0735 11.0057 71.9627 11.2443L71.0082 10.9034C71.1786 10.5057 71.4059 10.196 71.69 9.97443C71.9769 9.75 72.2894 9.59375 72.6275 9.50568C72.9684 9.41477 73.3036 9.36932 73.6332 9.36932C73.8434 9.36932 74.0849 9.39489 74.3576 9.44602C74.6332 9.49432 74.8988 9.59517 75.1545 9.74858C75.413 9.90199 75.6275 10.1335 75.7979 10.4432C75.9684 10.7528 76.0536 11.1676 76.0536 11.6875V16H75.0479V15.1136H74.9968C74.9286 15.2557 74.815 15.4077 74.6559 15.5696C74.4968 15.7315 74.2852 15.8693 74.021 15.983C73.7567 16.0966 73.4343 16.1534 73.0536 16.1534ZM73.207 15.25C73.6048 15.25 73.94 15.1719 74.2127 15.0156C74.4883 14.8594 74.6957 14.6577 74.8349 14.4105C74.9769 14.1634 75.0479 13.9034 75.0479 13.6307V12.7102C75.0053 12.7614 74.9116 12.8082 74.7667 12.8509C74.6246 12.8906 74.4599 12.9261 74.2724 12.9574C74.0877 12.9858 73.9073 13.0114 73.7312 13.0341C73.5579 13.054 73.4173 13.071 73.3093 13.0852C73.0479 13.1193 72.8036 13.1747 72.5763 13.2514C72.3519 13.3253 72.1701 13.4375 72.0309 13.5881C71.8945 13.7358 71.8263 13.9375 71.8263 14.1932C71.8263 14.5426 71.9556 14.8068 72.2141 14.9858C72.4755 15.1619 72.8065 15.25 73.207 15.25ZM78.8949 7.27273V16H77.8892V7.27273H78.8949ZM81.7425 7.27273V16H80.7369V7.27273H81.7425ZM84.2322 18.4545C84.0618 18.4545 83.9098 18.4403 83.7763 18.4119C83.6428 18.3864 83.5504 18.3608 83.4993 18.3352L83.755 17.4489C83.9993 17.5114 84.2152 17.5341 84.4027 17.517C84.5902 17.5 84.7564 17.4162 84.9013 17.2656C85.049 17.1179 85.1839 16.8778 85.3061 16.5455L85.4936 16.0341L83.0732 9.45455H84.1641L85.9709 14.6705H86.0391L87.8459 9.45455H88.9368L86.1584 16.9545C86.0334 17.2926 85.8786 17.5724 85.6939 17.794C85.5092 18.0185 85.2947 18.1847 85.0504 18.2926C84.8089 18.4006 84.5362 18.4545 84.2322 18.4545ZM93.6392 16V9.45455H94.6108V10.4773H94.696C94.8324 10.1278 95.0526 9.85653 95.3565 9.66335C95.6605 9.46733 96.0256 9.36932 96.4517 9.36932C96.8835 9.36932 97.2429 9.46733 97.5298 9.66335C97.8196 9.85653 98.0455 10.1278 98.2074 10.4773H98.2756C98.4432 10.1392 98.6946 9.87074 99.0298 9.67188C99.3651 9.47017 99.767 9.36932 100.236 9.36932C100.821 9.36932 101.3 9.55256 101.672 9.91903C102.044 10.2827 102.23 10.8494 102.23 11.6193V16H101.224V11.6193C101.224 11.1364 101.092 10.7912 100.828 10.5838C100.564 10.3764 100.253 10.2727 99.8949 10.2727C99.4347 10.2727 99.0781 10.4119 98.8253 10.6903C98.5724 10.9659 98.446 11.3153 98.446 11.7386V16H97.4233V11.517C97.4233 11.1449 97.3026 10.8452 97.0611 10.6179C96.8196 10.3878 96.5085 10.2727 96.1278 10.2727C95.8665 10.2727 95.6222 10.3423 95.3949 10.4815C95.1705 10.6207 94.9886 10.8139 94.8494 11.0611C94.7131 11.3054 94.6449 11.5881 94.6449 11.9091V16H93.6392ZM104.069 16V9.45455H105.075V16H104.069ZM104.58 8.36364C104.384 8.36364 104.215 8.29688 104.073 8.16335C103.934 8.02983 103.864 7.86932 103.864 7.68182C103.864 7.49432 103.934 7.33381 104.073 7.20028C104.215 7.06676 104.384 7 104.58 7C104.776 7 104.944 7.06676 105.083 7.20028C105.225 7.33381 105.296 7.49432 105.296 7.68182C105.296 7.86932 105.225 8.02983 105.083 8.16335C104.944 8.29688 104.776 8.36364 104.58 8.36364ZM111.553 10.9205L110.65 11.1761C110.593 11.0256 110.509 10.8793 110.398 10.7372C110.29 10.5923 110.142 10.473 109.955 10.3793C109.767 10.2855 109.527 10.2386 109.235 10.2386C108.834 10.2386 108.5 10.331 108.233 10.5156C107.969 10.6974 107.837 10.929 107.837 11.2102C107.837 11.4602 107.928 11.6577 108.11 11.8026C108.292 11.9474 108.576 12.0682 108.962 12.1648L109.934 12.4034C110.519 12.5455 110.955 12.7628 111.242 13.0554C111.529 13.3452 111.672 13.7187 111.672 14.1761C111.672 14.5511 111.564 14.8864 111.348 15.1818C111.135 15.4773 110.837 15.7102 110.453 15.8807C110.07 16.0511 109.624 16.1364 109.115 16.1364C108.448 16.1364 107.895 15.9915 107.458 15.7017C107.02 15.4119 106.743 14.9886 106.627 14.4318L107.581 14.1932C107.672 14.5455 107.844 14.8097 108.097 14.9858C108.353 15.1619 108.686 15.25 109.098 15.25C109.567 15.25 109.939 15.1506 110.215 14.9517C110.493 14.75 110.632 14.5085 110.632 14.2273C110.632 14 110.553 13.8097 110.394 13.6562C110.235 13.5 109.99 13.3835 109.661 13.3068L108.57 13.0511C107.971 12.9091 107.53 12.6889 107.249 12.3906C106.971 12.0895 106.831 11.7131 106.831 11.2614C106.831 10.892 106.935 10.5653 107.142 10.2812C107.353 9.99716 107.638 9.77415 107.999 9.61222C108.363 9.45028 108.775 9.36932 109.235 9.36932C109.882 9.36932 110.391 9.51136 110.76 9.79545C111.132 10.0795 111.397 10.4545 111.553 10.9205ZM114.192 7.27273V16H113.186V7.27273H114.192ZM118.778 16.1364C118.147 16.1364 117.603 15.9972 117.146 15.7188C116.691 15.4375 116.341 15.0455 116.093 14.5426C115.849 14.0369 115.727 13.4489 115.727 12.7784C115.727 12.108 115.849 11.517 116.093 11.0057C116.341 10.4915 116.684 10.0909 117.125 9.80398C117.568 9.5142 118.085 9.36932 118.676 9.36932C119.017 9.36932 119.353 9.42614 119.686 9.53977C120.018 9.65341 120.321 9.83807 120.593 10.0938C120.866 10.3466 121.083 10.6818 121.245 11.0994C121.407 11.517 121.488 12.0312 121.488 12.642V13.0682H116.443V12.1989H120.466C120.466 11.8295 120.392 11.5 120.244 11.2102C120.099 10.9205 119.892 10.6918 119.622 10.5241C119.355 10.3565 119.039 10.2727 118.676 10.2727C118.275 10.2727 117.929 10.3722 117.636 10.571C117.346 10.767 117.123 11.0227 116.967 11.3381C116.811 11.6534 116.733 11.9915 116.733 12.3523V12.9318C116.733 13.4261 116.818 13.8452 116.988 14.1889C117.162 14.5298 117.402 14.7898 117.708 14.9688C118.015 15.1449 118.372 15.233 118.778 15.233C119.042 15.233 119.281 15.196 119.494 15.1222C119.71 15.0455 119.896 14.9318 120.052 14.7812C120.208 14.6278 120.329 14.4375 120.414 14.2102L121.386 14.483C121.284 14.8125 121.112 15.1023 120.87 15.3523C120.629 15.5994 120.331 15.7926 119.975 15.9318C119.62 16.0682 119.221 16.1364 118.778 16.1364ZM124.944 16.1534C124.529 16.1534 124.153 16.0753 123.815 15.919C123.477 15.7599 123.208 15.5312 123.01 15.233C122.811 14.9318 122.711 14.5682 122.711 14.142C122.711 13.767 122.785 13.4631 122.933 13.2301C123.081 12.9943 123.278 12.8097 123.525 12.6761C123.772 12.5426 124.045 12.4432 124.343 12.3778C124.645 12.3097 124.947 12.2557 125.251 12.2159C125.649 12.1648 125.971 12.1264 126.218 12.1009C126.468 12.0724 126.65 12.0256 126.764 11.9602C126.88 11.8949 126.939 11.7812 126.939 11.6193V11.5852C126.939 11.1648 126.824 10.8381 126.593 10.6051C126.366 10.3722 126.021 10.2557 125.558 10.2557C125.078 10.2557 124.701 10.3608 124.429 10.571C124.156 10.7812 123.964 11.0057 123.853 11.2443L122.899 10.9034C123.069 10.5057 123.297 10.196 123.581 9.97443C123.868 9.75 124.18 9.59375 124.518 9.50568C124.859 9.41477 125.194 9.36932 125.524 9.36932C125.734 9.36932 125.975 9.39489 126.248 9.44602C126.524 9.49432 126.789 9.59517 127.045 9.74858C127.304 9.90199 127.518 10.1335 127.689 10.4432C127.859 10.7528 127.944 11.1676 127.944 11.6875V16H126.939V15.1136H126.887C126.819 15.2557 126.706 15.4077 126.547 15.5696C126.387 15.7315 126.176 15.8693 125.912 15.983C125.647 16.0966 125.325 16.1534 124.944 16.1534ZM125.098 15.25C125.495 15.25 125.831 15.1719 126.103 15.0156C126.379 14.8594 126.586 14.6577 126.725 14.4105C126.868 14.1634 126.939 13.9034 126.939 13.6307V12.7102C126.896 12.7614 126.802 12.8082 126.657 12.8509C126.515 12.8906 126.35 12.9261 126.163 12.9574C125.978 12.9858 125.798 13.0114 125.622 13.0341C125.449 13.054 125.308 13.071 125.2 13.0852C124.939 13.1193 124.694 13.1747 124.467 13.2514C124.243 13.3253 124.061 13.4375 123.922 13.5881C123.785 13.7358 123.717 13.9375 123.717 14.1932C123.717 14.5426 123.846 14.8068 124.105 14.9858C124.366 15.1619 124.697 15.25 125.098 15.25ZM132.251 16.1364C131.706 16.1364 131.224 15.9986 130.807 15.723C130.389 15.4446 130.063 15.0526 129.827 14.5469C129.591 14.0384 129.473 13.4375 129.473 12.7443C129.473 12.0568 129.591 11.4602 129.827 10.9545C130.063 10.4489 130.391 10.0582 130.811 9.78267C131.232 9.5071 131.717 9.36932 132.268 9.36932C132.695 9.36932 133.031 9.44034 133.278 9.58239C133.528 9.72159 133.719 9.88068 133.849 10.0597C133.983 10.2358 134.087 10.3807 134.161 10.4943H134.246V7.27273H135.251V16H134.28V14.9943H134.161C134.087 15.1136 133.982 15.2642 133.845 15.446C133.709 15.625 133.514 15.7855 133.261 15.9276C133.009 16.0668 132.672 16.1364 132.251 16.1364ZM132.388 15.233C132.791 15.233 133.132 15.1278 133.411 14.9176C133.689 14.7045 133.901 14.4105 134.045 14.0355C134.19 13.6577 134.263 13.2216 134.263 12.7273C134.263 12.2386 134.192 11.8111 134.05 11.4446C133.908 11.0753 133.697 10.7884 133.419 10.5838C133.141 10.3764 132.797 10.2727 132.388 10.2727C131.962 10.2727 131.607 10.3821 131.322 10.6009C131.041 10.8168 130.83 11.1108 130.688 11.483C130.548 11.8523 130.479 12.267 130.479 12.7273C130.479 13.1932 130.55 13.6165 130.692 13.9972C130.837 14.375 131.05 14.6761 131.331 14.9006C131.615 15.1222 131.967 15.233 132.388 15.233ZM137.233 16V9.45455H138.239V16H137.233ZM137.744 8.36364C137.548 8.36364 137.379 8.29688 137.237 8.16335C137.098 8.02983 137.028 7.86932 137.028 7.68182C137.028 7.49432 137.098 7.33381 137.237 7.20028C137.379 7.06676 137.548 7 137.744 7C137.94 7 138.108 7.06676 138.247 7.20028C138.389 7.33381 138.46 7.49432 138.46 7.68182C138.46 7.86932 138.389 8.02983 138.247 8.16335C138.108 8.29688 137.94 8.36364 137.744 8.36364ZM141.086 12.0625V16H140.081V9.45455H141.052V10.4773H141.137C141.291 10.1449 141.524 9.87784 141.836 9.67614C142.149 9.47159 142.552 9.36932 143.047 9.36932C143.49 9.36932 143.877 9.46023 144.21 9.64205C144.542 9.82102 144.801 10.0938 144.985 10.4602C145.17 10.8239 145.262 11.2841 145.262 11.8409V16H144.257V11.9091C144.257 11.3949 144.123 10.9943 143.856 10.7074C143.589 10.4176 143.223 10.2727 142.757 10.2727C142.436 10.2727 142.149 10.3423 141.896 10.4815C141.646 10.6207 141.449 10.8239 141.304 11.0909C141.159 11.358 141.086 11.6818 141.086 12.0625ZM149.742 18.5909C149.256 18.5909 148.839 18.5284 148.489 18.4034C148.14 18.2812 147.849 18.1193 147.616 17.9176C147.386 17.7188 147.202 17.5057 147.066 17.2784L147.867 16.7159C147.958 16.8352 148.073 16.9716 148.212 17.125C148.352 17.2812 148.542 17.4162 148.783 17.5298C149.028 17.6463 149.347 17.7045 149.742 17.7045C150.271 17.7045 150.707 17.5767 151.05 17.321C151.394 17.0653 151.566 16.6648 151.566 16.1193V14.7898H151.481C151.407 14.9091 151.302 15.0568 151.165 15.233C151.032 15.4062 150.839 15.5611 150.586 15.6974C150.336 15.831 149.998 15.8977 149.572 15.8977C149.043 15.8977 148.569 15.7727 148.148 15.5227C147.731 15.2727 147.4 14.9091 147.156 14.4318C146.914 13.9545 146.793 13.375 146.793 12.6932C146.793 12.0227 146.911 11.4389 147.147 10.9418C147.383 10.4418 147.711 10.0554 148.131 9.78267C148.552 9.5071 149.038 9.36932 149.589 9.36932C150.015 9.36932 150.353 9.44034 150.603 9.58239C150.856 9.72159 151.049 9.88068 151.183 10.0597C151.319 10.2358 151.424 10.3807 151.498 10.4943H151.6V9.45455H152.572V16.1875C152.572 16.75 152.444 17.2074 152.188 17.5597C151.935 17.9148 151.594 18.1747 151.165 18.3395C150.739 18.5071 150.265 18.5909 149.742 18.5909ZM149.708 14.9943C150.112 14.9943 150.452 14.902 150.731 14.7173C151.009 14.5327 151.221 14.267 151.366 13.9205C151.511 13.5739 151.583 13.1591 151.583 12.6761C151.583 12.2045 151.512 11.7884 151.37 11.4276C151.228 11.0668 151.018 10.7841 150.739 10.5795C150.461 10.375 150.117 10.2727 149.708 10.2727C149.282 10.2727 148.927 10.3807 148.643 10.5966C148.362 10.8125 148.15 11.1023 148.008 11.4659C147.869 11.8295 147.799 12.233 147.799 12.6761C147.799 13.1307 147.87 13.5327 148.012 13.8821C148.157 14.2287 148.37 14.5014 148.651 14.7003C148.935 14.8963 149.288 14.9943 149.708 14.9943Z" fill="#DB0000"/>
</svg>
